<svg xmlns="http://www.w3.org/2000/svg" xmlns:xlink="http://www.w3.org/1999/xlink" width="1920" height="1080" viewBox="0 0 1920 1080">
  <defs>
    <style>
      .cls-1 {
        fill: #292f33;
      }

      .cls-2 {
        clip-path: url(#clip-path);
      }

      .cls-3 {
        fill: #ed3237;
      }
    </style>
    <clipPath id="clip-path">
      <path id="Caminho_11638" data-name="Caminho 11638" class="cls-1" d="M0,0H1920V1080H0Z"/>
    </clipPath>
  </defs>
  <g id="Grupo_de_máscara_1" data-name="Grupo de máscara 1" class="cls-2">
    <path id="Caminho_16" data-name="Caminho 16" class="cls-1" d="M0,0H1920V1080H0Z"/>
    <g id="Grupo_12" data-name="Grupo 12" transform="matrix(0.996, 0.087, -0.087, 0.996, -280.924, 83.902)">
      <g id="Grupo_1" data-name="Grupo 1" transform="translate(60.613 -20.868)">
        <path id="Caminho_5" data-name="Caminho 5" class="cls-3" d="M57.3,939.465l-3.556-1.2c69.831-82.119,144.089-141.6,227.025-181.836,74.21-36,153.853-55.726,243.48-60.289,166.57-8.488,337.519,36.444,518.5,84,236.891,62.248,481.834,126.621,718.493,62.336,209.509-56.88,168.845-148.055,117.364-263.485-38.28-85.834-81.671-183.118-26.876-285.447,63.279-118.17,246.993-221.02,561.638-314.414l1.721,2.294c-313.6,93.086-496.627,195.445-559.535,312.932-54.4,101.588-11.189,198.473,26.935,283.951,25.047,56.159,48.706,109.2,39.055,154.286-10.716,50.07-61.149,85.725-158.7,112.213-238.224,64.691-483.986.125-721.651-62.323-180.519-47.438-351.043-92.231-516.618-83.814C337.371,708.2,188.892,784.715,57.3,939.465Z" transform="translate(-53.744 20.868)"/>
      </g>
      <g id="Grupo_2" data-name="Grupo 2" transform="translate(56.108 -8.834)">
        <path id="Caminho_6" data-name="Caminho 6" class="cls-3" d="M52.985,940.753l-3.122-1.178C315.239,641.664,629.788,708.451,962.8,779.146c249.178,52.908,506.832,107.607,764.71,16.426,206.858-73.141,178.752-162.44,146.2-265.84-23.507-74.671-50.141-159.3,11.161-249.713C1955.155,176.375,2130.335,81.346,2420.425-10.5L2422-8.388C2132.711,83.2,1958.092,177.85,1888.175,280.967c-60.842,89.723-34.324,173.967-10.928,248.294,32.837,104.316,61.2,194.4-148.016,268.38-259.238,91.659-517.649,36.795-767.546-16.258C630.09,710.987,316.9,644.493,52.985,940.753Z" transform="translate(-49.863 10.5)"/>
      </g>
      <g id="Grupo_3" data-name="Grupo 3" transform="translate(51.604 3.198)">
        <path id="Caminho_7" data-name="Caminho 7" class="cls-3" d="M48.68,942.04l-2.7-1.159c109.832-116.172,234.36-177.542,391.892-193.152,140.022-13.871,287.377,10.158,443.378,35.6,261.785,42.694,532.482,86.839,813.761-36.572,203.627-89.344,190.4-174.6,176.39-264.856-20.3-130.8-43.3-279.057,556.074-482.037l1.438,1.928c-597.4,202.313-574.521,349.777-554.329,479.884,14.114,90.931,27.441,176.822-177.827,266.886-126.372,55.445-262.879,81.781-417.406,80.675-136.47-1.026-269.858-22.779-398.85-43.815C575.854,735.745,288.092,688.811,48.68,942.04Z" transform="translate(-45.982 0.133)"/>
      </g>
      <g id="Grupo_4" data-name="Grupo 4" transform="translate(47.1 15.232)">
        <path id="Caminho_8" data-name="Caminho 8" class="cls-3" d="M44.379,943.327,42.1,942.191c98.769-96.763,210.865-149.629,352.776-166.373,126.468-14.938,260.883.659,403.184,17.167,261.887,30.382,558.724,64.808,865.619-97.125,199.472-105.248,203.343-180.609,207.44-260.4,5.671-110.454,11.537-224.667,563.41-425.227l1.292,1.734C1885.4,212,1879.56,325.638,1873.915,435.534c-4.122,80.263-8.014,156.075-208.542,261.889-137.6,72.6-284.525,112.278-449.161,121.286-145.019,7.94-284.1-8.195-418.607-23.8C508.9,761.425,259.571,732.5,44.379,943.327Z" transform="translate(-42.102 -10.235)"/>
      </g>
      <g id="Grupo_5" data-name="Grupo 5" transform="translate(42.598 27.265)">
        <path id="Caminho_9" data-name="Caminho 9" class="cls-3" d="M40.086,944.614l-1.863-1.108c87.708-77.758,187.314-121.712,313.462-138.316,112.67-14.834,233.3-6.105,361.013,3.131,274.526,19.86,585.691,42.358,920.741-165.635C1826,523.147,1849.982,453.067,1871.131,391.236c31.229-91.279,58.2-170.113,570.455-370.633l1.146,1.536c-511.32,200.154-538.171,278.641-569.258,369.517-21.24,62.083-45.313,132.449-238.465,252.36C1299.176,852.494,987.466,829.945,712.455,810.055,454.189,791.384,231.127,775.244,40.086,944.614Z" transform="translate(-38.223 -20.603)"/>
      </g>
      <g id="Grupo_6" data-name="Grupo 6" transform="translate(38.096 670.142)">
        <path id="Caminho_10" data-name="Caminho 10" class="cls-3" d="M35.807,315.054l-1.463-.332c167.326-40.31,363.147-38.235,589.9-35.832,287.594,3.047,613.594,6.5,979.97-75.265,173.048-38.622,222.3-57.991,258.263-72.135,59.626-23.45,89.559-35.22,586.169-100.522l1,.413c-496.137,65.239-525.975,76.975-585.417,100.351-36.028,14.166-85.36,33.568-258.607,72.234-163.669,36.528-334.239,59.278-521.453,69.548-163.853,8.987-314.417,7.395-460.02,5.85C397.894,276.971,202.5,274.9,35.807,315.054Z" transform="translate(-34.344 -30.969)"/>
      </g>
      <g id="Grupo_7" data-name="Grupo 7" transform="translate(33.594 682.176)">
        <path id="Caminho_11" data-name="Caminho 11" class="cls-3" d="M31.529,316.335l-1.064-.305c142.226-27.842,308.456-27.6,500.917-27.337,286.325.409,642.623.908,1044.556-99.423,45.292-11.306,82.213-20.609,114.789-28.816,174.949-44.079,174.949-44.079,305.2-59.436,78.407-9.243,209.639-24.716,459.764-59.682l.853.34c-250.179,34.974-381.445,50.45-459.872,59.7-129.986,15.325-129.986,15.325-304.734,59.351-32.576,8.208-69.5,17.511-114.794,28.818-179.235,44.74-363.654,73.394-563.8,87.6C838.857,289.524,675.491,289.3,531.372,289.09,339.2,288.81,173.289,288.584,31.529,316.335Z" transform="translate(-30.465 -41.337)"/>
      </g>
      <g id="Grupo_8" data-name="Grupo 8" transform="translate(29.092 694.206)">
        <path id="Caminho_12" data-name="Caminho 12" class="cls-3" d="M27.273,317.612l-.687-.27C142.6,300.487,276.9,300.058,432.421,299.561c299.744-.956,672.784-2.147,1116.147-124.647,112.4-31.056,188.679-49.12,247.33-58.569,56.268-9.067,96.8-10.4,148.124-12.079,90.2-2.955,213.723-7.006,518.733-52.564l.7.27c-305.251,45.593-428.94,49.647-519.255,52.608-51.152,1.676-91.557,3-147.568,12.026-58.55,9.434-134.746,27.481-247.069,58.516C1105.815,297.728,732.445,298.92,432.44,299.879,277.117,300.373,142.975,300.8,27.273,317.612Z" transform="translate(-26.586 -51.702)"/>
      </g>
      <g id="Grupo_9" data-name="Grupo 9" transform="translate(24.587 706.239)">
        <path id="Caminho_13" data-name="Caminho 13" class="cls-3" d="M23.039,318.883l-.334-.222c87.856-7.81,187.289-7.887,302.425-7.976,296.941-.231,703.621-.548,1196.925-150.133C1749,91.737,1833.688,94.788,1950.893,99.018c105.07,3.786,235.84,8.5,518.93-36.948l.539.2c-283.4,45.5-414.371,40.778-519.612,36.987-116.89-4.215-201.342-7.26-427.936,61.45-219.066,66.427-438.055,109.325-669.484,131.146C653.742,310.667,479.16,310.8,325.13,310.924,210.09,311.013,110.737,311.089,23.039,318.883Z" transform="translate(-22.705 -62.07)"/>
      </g>
      <g id="Grupo_10" data-name="Grupo 10" transform="translate(20.073 718.268)">
        <path id="Caminho_14" data-name="Caminho 14" class="cls-3" d="M356.731,321.726c-53.373,0-103.7-.669-150.2-1.286-67.556-.9-131.367-1.743-187.647-.294l-.071-.157c56.327-1.453,120.157-.606,187.75.293,133.376,1.772,288.047,3.822,465.344-9.124-68.614,5.031-139.077,8.208-213.331,9.64C423.6,321.473,389.594,321.726,356.731,321.726Zm616.7-46.115c159.422-26.2,333.512-66.834,522.918-129.419,102.766-33.958,188.169-52.531,268.764-58.451,72.815-5.348,135.464.137,201.8,5.945C2087.8,104.27,2224.806,116.265,2476.9,72.434l.367.129c-112.541,19.567-212.292,29.716-304.953,31.025-81.122,1.144-144.407-4.394-205.612-9.753-66.234-5.8-128.794-11.273-201.4-5.941-80.459,5.909-165.759,24.463-268.44,58.394-67.33,22.247-135.525,42.583-202.7,60.443-63.242,16.814-127.43,31.926-190.77,44.913C1060.413,260.455,1016.886,268.481,973.434,275.611Z" transform="translate(-18.816 -72.434)"/>
      </g>
      <g id="Grupo_11" data-name="Grupo 11" transform="translate(15.528 719.93)">
        <path id="Caminho_15" data-name="Caminho 15" class="cls-3" d="M263.385,333.106c-69.945-1.531-133.308-4.662-190.716-7.5-20.211-1-39.3-1.942-57.769-2.772l.056-.077c18.47.829,37.563,1.771,57.774,2.772C130.522,328.385,194.039,331.522,263.385,333.106Zm964.994-121.87c77.865-22.04,158.863-47.835,243.073-77.974,27.29-9.768,54.26-18.4,80.153-25.648,24.8-6.944,49.474-12.865,73.348-17.6a828.293,828.293,0,0,1,130.974-15.539c81.908-3.116,154.736,6.212,231.853,16.091,71.37,9.142,148.005,18.957,239.127,18.957,74.36,0,158.357-6.53,257.078-25.292l.19.064c-26.705,5.074-53.285,9.436-79.007,12.965-24.44,3.351-48.885,6.056-72.666,8.041a1254.142,1254.142,0,0,1-129.3,4.206c-80.07-1.512-148.952-10.337-215.564-18.87-66.766-8.553-130.338-16.695-199.3-16.695-10.653,0-21.423.195-32.364.611-91.7,3.492-182.026,22.163-284.266,58.753-77.526,27.748-155.7,52.918-232.336,74.806Q1233.878,209.686,1228.379,211.236Z" transform="translate(-14.9 -73.866)"/>
      </g>
    </g>
  </g>
</svg>
