<?xml version="1.0" encoding="utf-8"?>
<!-- Generator: Adobe Illustrator 24.0.1, SVG Export Plug-In . SVG Version: 6.00 Build 0)  -->
<svg version="1.1" id="Camada_1" xmlns="http://www.w3.org/2000/svg" xmlns:xlink="http://www.w3.org/1999/xlink" x="0px" y="0px"
	 viewBox="0 0 100 67.4" style="enable-background:new 0 0 100 67.4;" xml:space="preserve">
<style type="text/css">
	.st0{fill:#FFFFFF;}
</style>
<path class="st0" d="M19.6,15.7c0,2.3,1.9,4.1,4.1,4.1c2.3,0,4.1-1.9,4.1-4.1s-1.9-4.1-4.1-4.1C21.4,11.6,19.5,13.5,19.6,15.7z"/>
<path class="st0" d="M0.5,1.9v54h34.8v8.8h6.2v-15H27.7V36.9h3.3l0-11.7c0-2-1.7-3.7-3.7-3.7h-7.7c-2,0-3.7,1.7-3.7,3.7l0,11.7h3.3
	v12.8H6.7V8.1h31.7V1.9H0.5z"/>
<path class="st0" d="M47.5,30.2v26.8h4.4v4.2c0,2.6,1.2,3.8,3.8,3.8c2.5,0,3.7-1.3,3.7-3.8v-4.2h28.2v4.2c0,2.6,1.2,3.8,3.7,3.8
	s3.7-1.3,3.7-3.8v-4.2h4.4V30.2L97,10.7c-0.4-2.6-2.5-4.7-6.3-6.3c-4.9-2-10.7-3-17.1-3c-6.5,0-12.2,1-17.1,3
	c-3.9,1.6-6,3.7-6.2,6.3L47.5,30.2z M80.6,9.8H66.4V6.2h14.3V9.8z M83.4,44.3c0-2.2,1.8-4,4-4c2.2,0,4,1.8,4,4c0,2.2-1.8,4-4,4
	C85.2,48.3,83.4,46.5,83.4,44.3z M55.6,44.3c0-2.2,1.8-4,4-4c2.2,0,4,1.8,4,4c0,2.2-1.8,4-4,4C57.4,48.3,55.6,46.5,55.6,44.3z
	 M52,30.1l0.1-0.5l2.1-15.4c0.2-1.1,0.9-1.7,2.1-1.7h34.6c1.2,0,1.9,0.6,2.1,1.7l2.1,15.4l0.1,0.5c0,1.4-0.7,2.1-2.1,2.1H54.1
	C52.7,32.1,52,31.4,52,30.1z"/>
</svg>
