<svg xmlns="http://www.w3.org/2000/svg" width="200.192" height="50.377" viewBox="0 0 174.192 40.377">
  <defs>
    <style>
      .cls-1 {
        fill: #fff;
      }
    </style>
  </defs>
  <g id="Grupo_3243" data-name="Grupo 3243" transform="translate(-66.552 -394)">
    <path id="Caminho_11641" data-name="Caminho 11641" class="cls-1" d="M174.256,398.584c.945-3.056,1.528-4.583,7.638-4.583,8.657,0,10.038.945,8.585,5.528l-9.967,31.062c-1.164,3.056-2.546,3.783-6.547,3.783H160.8c-4,0-5.674-.655-7.566-3.783l-6.4-10.693c-1.673-2.328-.436-3.054,2.983-3.054,3.616-.091,4.931.72,6.037,3.054l3.632,7.347c.873,1.383,1.746,1.528,3.274,1.528h.655c1.527,0,2.4-.219,2.692-1.528Z" transform="translate(-52.55 -0.001)"/>
    <path id="Caminho_11642" data-name="Caminho 11642" class="cls-1" d="M83.276,429.791c-.945,3.056-1.528,4.583-7.64,4.583-8.656,0-10.037-.945-8.584-5.528l9.967-31.062c1.164-3.056,2.546-3.783,6.547-3.783H96.733c4,0,5.674.655,7.566,3.783l6.41,10.888c1.673,2.329.437,3.056-2.983,3.056-3.636,0-4.728-.873-6.037-3.056l-3.645-7.542c-.873-1.382-1.746-1.528-3.274-1.528h-.654c-1.527,0-2.4.219-2.692,1.528Z"/>
    <path id="Caminho_11643" data-name="Caminho 11643" class="cls-1" d="M317.811,409.308a1.843,1.843,0,0,0-1.161-1.018,7.228,7.228,0,0,0-2.3-.3h-2.725l-4.418,13.846h2.952a5.808,5.808,0,0,0,2.192-.4,5.193,5.193,0,0,0,1.805-1.242,9.12,9.12,0,0,0,1.483-2.175,23.428,23.428,0,0,0,1.3-3.224c.255-.818.465-1.527.631-2.121a13.543,13.543,0,0,0,.329-1.351A3.735,3.735,0,0,0,317.811,409.308Zm0,0a1.843,1.843,0,0,0-1.161-1.018,7.228,7.228,0,0,0-2.3-.3h-2.725l-4.418,13.846h2.952a5.808,5.808,0,0,0,2.192-.4,5.193,5.193,0,0,0,1.805-1.242,9.12,9.12,0,0,0,1.483-2.175,23.428,23.428,0,0,0,1.3-3.224c.255-.818.465-1.527.631-2.121a13.543,13.543,0,0,0,.329-1.351A3.735,3.735,0,0,0,317.811,409.308ZM364.353,394H281.279a8.461,8.461,0,0,0-8.063,5.9l-9.509,29.938a3.486,3.486,0,0,0,3.322,4.541h89.963a4.726,4.726,0,0,0,4.5-3.3l9.078-28.58A6.526,6.526,0,0,0,364.353,394Zm-77.906,26.924a.828.828,0,0,0,.414.631,2,2,0,0,0,1.021.21h8.65l-1.812,5.752c-1.659.163-3.356.309-5.08.438s-3.57.19-5.535.19a10.231,10.231,0,0,1-2.084-.227,4.834,4.834,0,0,1-1.989-.893,3.365,3.365,0,0,1-1.208-1.911,6.172,6.172,0,0,1,.288-3.244l4.154-13.425a10.108,10.108,0,0,1,2.053-3.909,7.429,7.429,0,0,1,3-2.033,10.663,10.663,0,0,1,3.621-.614q2.657,0,5.3.143t5.4.383l-1.826,5.749h-8.769a2.233,2.233,0,0,0-1.615.509,3.671,3.671,0,0,0-.845,1.49l-.5,1.649,8.63.35-1.687,5.4-8.857.35-.628,2.033A2.448,2.448,0,0,0,286.448,420.927Zm31.275,4.384a12.039,12.039,0,0,1-4.174,2.016,19.993,19.993,0,0,1-5.114.611h-9.991l8.284-26.045h10.316a10.491,10.491,0,0,1,5.518,1.157,4.87,4.87,0,0,1,2.263,3.207,12.834,12.834,0,0,1-.02,4.751c-.126.75-.285,1.53-.482,2.348s-.434,1.659-.723,2.525a25.2,25.2,0,0,1-2.555,5.715A13.781,13.781,0,0,1,317.723,425.312Zm11.922,2.627h-6.8l8.562-26.045h6.879Zm29.12-19.944h-6.505l-6.733,19.944h-6.8l6.672-19.944h-6.505l2.05-6.1h19.927Zm-42.114.3a7.228,7.228,0,0,0-2.3-.3h-2.725l-4.418,13.846h2.952a5.808,5.808,0,0,0,2.192-.4,5.193,5.193,0,0,0,1.805-1.242,9.12,9.12,0,0,0,1.483-2.175,23.428,23.428,0,0,0,1.3-3.224c.255-.818.465-1.527.631-2.121a13.543,13.543,0,0,0,.329-1.351,3.735,3.735,0,0,0-.092-2.016A1.843,1.843,0,0,0,316.65,408.29Zm1.161,1.018a1.843,1.843,0,0,0-1.161-1.018,7.228,7.228,0,0,0-2.3-.3h-2.725l-4.418,13.846h2.952a5.808,5.808,0,0,0,2.192-.4,5.193,5.193,0,0,0,1.805-1.242,9.12,9.12,0,0,0,1.483-2.175,23.428,23.428,0,0,0,1.3-3.224c.255-.818.465-1.527.631-2.121a13.543,13.543,0,0,0,.329-1.351A3.735,3.735,0,0,0,317.811,409.308Zm0,0a1.843,1.843,0,0,0-1.161-1.018,7.228,7.228,0,0,0-2.3-.3h-2.725l-4.418,13.846h2.952a5.808,5.808,0,0,0,2.192-.4,5.193,5.193,0,0,0,1.805-1.242,9.12,9.12,0,0,0,1.483-2.175,23.428,23.428,0,0,0,1.3-3.224c.255-.818.465-1.527.631-2.121a13.543,13.543,0,0,0,.329-1.351A3.735,3.735,0,0,0,317.811,409.308Z" transform="translate(-130.141 -0.002)"/>
  </g>
</svg>
